# xmcd CD database file
#
# Track frame offsets:
#	150
#	16472
#	31575
#	51175
#	74187
#	88915
#	98625
#	109050
#	118472
#	135407
#	158822
#
# Disc length: 2312 seconds
#
# Revision: 3
# Processed by: cddbd v1.5PL3 Copyright (c) Steve Scherf et al.
# Submitted via: CDex 1.51
#
DISCID=9509060b
DTITLE=Ry Cooder - Jazz
DYEAR=1978
DGENRE=Jazz
TTITLE0=Big Bad Bill Is Sweet William Now
TTITLE1=Face To Face That I Shall Meet Him
TTITLE2=The Pearls - Tia Juana
TTITLE3=The Dream
TTITLE4=Happy Meeting In Glory
TTITLE5=In A Mist
TTITLE6=Flashes
TTITLE7=Davenport Blues
TTITLE8=Shine
TTITLE9=Nobody
TTITLE10=We Shall Be Happy
EXTD=YEAR: 1978
EXTT0=
EXTT1=
EXTT2=
EXTT3=
EXTT4=
EXTT5=
EXTT6=
EXTT7=
EXTT8=
EXTT9=
EXTT10=
PLAYORDER=
